HIERARCHY
ROOT Hips
{
	OFFSET 0.000000 94.000000 0.000011
	CHANNELS 6 Xposition Yposition Zposition Yrotation Xrotation Zrotation
	JOINT Spine
	{
		OFFSET 0.000000 12.994698 0.000002
		CHANNELS 6 Xposition Yposition Zposition Yrotation Xrotation Zrotation
		JOINT Spine1
		{
			OFFSET 0.000000 12.709900 0.000002
			CHANNELS 6 Xposition Yposition Zposition Yrotation Xrotation Zrotation
			JOINT Spine2
			{
				OFFSET 0.000000 12.782906 0.000002
				CHANNELS 6 Xposition Yposition Zposition Yrotation Xrotation Zrotation
				JOINT LeftShoulder
				{
					OFFSET 7.040100 10.435104 1.914701
					CHANNELS 6 Xposition Yposition Zposition Yrotation Xrotation Zrotation
					JOINT LeftArm
					{
						OFFSET 0.000000 13.459900 0.000002
						CHANNELS 6 Xposition Yposition Zposition Yrotation Xrotation Zrotation
						JOINT LeftForeArm
						{
							OFFSET -0.000100 26.100006 0.000003
							CHANNELS 6 Xposition Yposition Zposition Yrotation Xrotation Zrotation
							JOINT LeftHand
							{
								OFFSET 0.000000 28.900101 0.000003
								CHANNELS 6 Xposition Yposition Zposition Yrotation Xrotation Zrotation
								JOINT LeftHandIndex1
								{
									OFFSET -2.561200 8.073898 0.103001
									CHANNELS 6 Xposition Yposition Zposition Yrotation Xrotation Zrotation
									JOINT LeftHandIndex2
									{
										OFFSET 0.000000 4.580505 0.000000
										CHANNELS 6 Xposition Yposition Zposition Yrotation Xrotation Zrotation
										JOINT LeftHandIndex3
										{
											OFFSET 0.000000 2.817993 0.000000
											CHANNELS 6 Xposition Yposition Zposition Yrotation Xrotation Zrotation
											End Site
											{
												OFFSET 0.000000 1.356598 0.000000
											}
										}
									}
								}
								JOINT LeftHandMiddle1
								{
									OFFSET -0.545000 8.136505 0.103001
									CHANNELS 6 Xposition Yposition Zposition Yrotation Xrotation Zrotation
									JOINT LeftHandMiddle2
									{
										OFFSET 0.000000 4.702408 0.000000
										CHANNELS 6 Xposition Yposition Zposition Yrotation Xrotation Zrotation
										JOINT LeftHandMiddle3
										{
											OFFSET 0.000000 3.101593 0.000000
											CHANNELS 6 Xposition Yposition Zposition Yrotation Xrotation Zrotation
											End Site
											{
												OFFSET 0.000000 1.499100 0.000000
											}
										}
									}
								}
								JOINT LeftHandPinky1
								{
									OFFSET 3.136800 7.018097 0.103101
									CHANNELS 6 Xposition Yposition Zposition Yrotation Xrotation Zrotation
									JOINT LeftHandPinky2
									{
										OFFSET 0.000000 3.554001 0.000000
										CHANNELS 6 Xposition Yposition Zposition Yrotation Xrotation Zrotation
										JOINT LeftHandPinky3
										{
											OFFSET 0.000000 2.233902 0.000000
											CHANNELS 6 Xposition Yposition Zposition Yrotation Xrotation Zrotation
											End Site
											{
												OFFSET 0.000000 1.120499 0.000000
											}
										}
									}
								}
								JOINT LeftHandRing1
								{
									OFFSET 1.440500 7.806702 0.103101
									CHANNELS 6 Xposition Yposition Zposition Yrotation Xrotation Zrotation
									JOINT LeftHandRing2
									{
										OFFSET 0.000000 4.392197 0.000000
										CHANNELS 6 Xposition Yposition Zposition Yrotation Xrotation Zrotation
										JOINT LeftHandRing3
										{
											OFFSET 0.000000 2.832703 0.000000
											CHANNELS 6 Xposition Yposition Zposition Yrotation Xrotation Zrotation
											End Site
											{
												OFFSET 0.000000 1.350006 0.000000
											}
										}
									}
								}
								JOINT LeftHandThumb1
								{
									OFFSET -2.786300 2.078995 0.094600
									CHANNELS 6 Xposition Yposition Zposition Yrotation Xrotation Zrotation
									JOINT LeftHandThumb2
									{
										OFFSET 0.000000 3.961899 0.000000
										CHANNELS 6 Xposition Yposition Zposition Yrotation Xrotation Zrotation
										JOINT LeftHandThumb3
										{
											OFFSET 0.000000 3.007095 0.000000
											CHANNELS 6 Xposition Yposition Zposition Yrotation Xrotation Zrotation
											End Site
											{
												OFFSET 0.000000 1.729507 0.000000
											}
										}
									}
								}
							}
						}
					}
				}
				JOINT Neck
				{
					OFFSET 0.000000 18.209305 0.000002
					CHANNELS 6 Xposition Yposition Zposition Yrotation Xrotation Zrotation
					JOINT Head
					{
						OFFSET 0.000000 11.033493 0.000001
						CHANNELS 6 Xposition Yposition Zposition Yrotation Xrotation Zrotation
						End Site
						{
							OFFSET 0.000000 8.022003 0.000001
						}
					}
				}
				JOINT RightShoulder
				{
					OFFSET -7.040100 10.435104 1.914701
					CHANNELS 6 Xposition Yposition Zposition Yrotation Xrotation Zrotation
					JOINT RightArm
					{
						OFFSET 0.000000 13.459900 0.000002
						CHANNELS 6 Xposition Yposition Zposition Yrotation Xrotation Zrotation
						JOINT RightForeArm
						{
							OFFSET 0.000000 26.100098 0.000003
							CHANNELS 6 Xposition Yposition Zposition Yrotation Xrotation Zrotation
							JOINT RightHand
							{
								OFFSET -0.000100 28.900101 -0.000097
								CHANNELS 6 Xposition Yposition Zposition Yrotation Xrotation Zrotation
								JOINT RightHandIndex1
								{
									OFFSET 2.561100 8.074005 0.103001
									CHANNELS 6 Xposition Yposition Zposition Yrotation Xrotation Zrotation
									JOINT RightHandIndex2
									{
										OFFSET 0.000000 4.580505 -0.000099
										CHANNELS 6 Xposition Yposition Zposition Yrotation Xrotation Zrotation
										JOINT RightHandIndex3
										{
											OFFSET 0.000000 2.817993 0.000000
											CHANNELS 6 Xposition Yposition Zposition Yrotation Xrotation Zrotation
											End Site
											{
												OFFSET 0.000000 1.356598 0.000000
											}
										}
									}
								}
								JOINT RightHandMiddle1
								{
									OFFSET 0.545000 8.136597 0.103001
									CHANNELS 6 Xposition Yposition Zposition Yrotation Xrotation Zrotation
									JOINT RightHandMiddle2
									{
										OFFSET 0.000000 4.702408 -0.000099
										CHANNELS 6 Xposition Yposition Zposition Yrotation Xrotation Zrotation
										JOINT RightHandMiddle3
										{
											OFFSET 0.000000 3.101593 0.000000
											CHANNELS 6 Xposition Yposition Zposition Yrotation Xrotation Zrotation
											End Site
											{
												OFFSET 0.000000 1.499100 0.000000
											}
										}
									}
								}
								JOINT RightHandPinky1
								{
									OFFSET -3.136800 7.018097 0.103001
									CHANNELS 6 Xposition Yposition Zposition Yrotation Xrotation Zrotation
									JOINT RightHandPinky2
									{
										OFFSET 0.000000 3.554092 -0.000099
										CHANNELS 6 Xposition Yposition Zposition Yrotation Xrotation Zrotation
										JOINT RightHandPinky3
										{
											OFFSET 0.000000 2.233994 0.000000
											CHANNELS 6 Xposition Yposition Zposition Yrotation Xrotation Zrotation
											End Site
											{
												OFFSET 0.000000 1.120499 0.000000
											}
										}
									}
								}
								JOINT RightHandRing1
								{
									OFFSET -1.440500 7.806793 0.103001
									CHANNELS 6 Xposition Yposition Zposition Yrotation Xrotation Zrotation
									JOINT RightHandRing2
									{
										OFFSET 0.000000 4.392303 -0.000099
										CHANNELS 6 Xposition Yposition Zposition Yrotation Xrotation Zrotation
										JOINT RightHandRing3
										{
											OFFSET 0.000000 2.832703 0.000000
											CHANNELS 6 Xposition Yposition Zposition Yrotation Xrotation Zrotation
											End Site
											{
												OFFSET 0.000000 1.350006 0.000000
											}
										}
									}
								}
								JOINT RightHandThumb1
								{
									OFFSET 2.786300 2.079102 0.094500
									CHANNELS 6 Xposition Yposition Zposition Yrotation Xrotation Zrotation
									JOINT RightHandThumb2
									{
										OFFSET 0.000000 3.962006 -0.000099
										CHANNELS 6 Xposition Yposition Zposition Yrotation Xrotation Zrotation
										JOINT RightHandThumb3
										{
											OFFSET 0.000000 3.007202 -0.000099
											CHANNELS 6 Xposition Yposition Zposition Yrotation Xrotation Zrotation
											End Site
											{
												OFFSET 0.000000 1.729507 0.000000
											}
										}
									}
								}
							}
						}
					}
				}
			}
		}
	}
	JOINT LeftUpLeg
	{
		OFFSET 8.100000 0.000000 0.000000
		CHANNELS 6 Xposition Yposition Zposition Yrotation Xrotation Zrotation
		JOINT LeftLeg
		{
			OFFSET 0.000000 43.199997 0.000005
			CHANNELS 6 Xposition Yposition Zposition Yrotation Xrotation Zrotation
			JOINT LeftFoot
			{
				OFFSET 0.000000 43.300003 0.000005
				CHANNELS 6 Xposition Yposition Zposition Yrotation Xrotation Zrotation
				JOINT LeftToeBase
				{
					OFFSET 0.000000 14.572693 0.000002
					CHANNELS 6 Xposition Yposition Zposition Yrotation Xrotation Zrotation
					End Site
					{
						OFFSET 0.000000 3.500000 0.000000
					}
				}
			}
		}
	}
	JOINT RightUpLeg
	{
		OFFSET -8.100000 0.000000 0.000000
		CHANNELS 6 Xposition Yposition Zposition Yrotation Xrotation Zrotation
		JOINT RightLeg
		{
			OFFSET 0.000000 43.199997 0.000005
			CHANNELS 6 Xposition Yposition Zposition Yrotation Xrotation Zrotation
			JOINT RightFoot
			{
				OFFSET 0.000000 43.300003 0.000005
				CHANNELS 6 Xposition Yposition Zposition Yrotation Xrotation Zrotation
				JOINT RightToeBase
				{
					OFFSET 0.000000 14.572693 0.000002
					CHANNELS 6 Xposition Yposition Zposition Yrotation Xrotation Zrotation
					End Site
					{
						OFFSET 0.000000 3.500000 0.000000
					}
				}
			}
		}
	}
}
MOTION
Frames: 4
Frame Time: 0.010000
4.907500 94.669899 0.896111 17.856705 -5.845869 -1.500904 -0.000000 12.994690 0.000002 -0.000001 -0.000000 -0.000000 -0.000000 12.709900 0.000002 -0.000001 -0.000000 -0.000000 -0.000000 12.782906 0.000002 -25.954898 -0.000001 -0.000004 7.040100 10.435089 1.914701 0.000000 89.999989 -90.000003 -0.000002 13.459903 0.000021 -47.755914 54.559186 -28.837206 -0.000112 26.100004 -0.000003 -0.000006 0.000008 103.012401 -0.000003 28.900085 -0.000003 -0.000001 -0.000000 -0.000001 -2.561204 8.073878 0.103018 4.455600 17.500797 8.688303 0.000014 4.580529 0.000005 -0.000000 17.999997 0.000001 0.000008 2.818016 -0.000024 -0.000003 17.998691 -0.000797 -0.545013 8.136512 0.103025 0.000000 17.999589 5.400097 0.000005 4.702398 0.000011 -0.000000 18.000098 0.000003 0.000001 3.101612 -0.000018 0.000101 17.999995 0.000098 3.136803 7.018121 0.103130 -22.769095 18.002391 -13.293800 -0.000003 3.554020 -0.000010 -0.000300 17.999391 0.000398 -0.000008 2.233902 0.000003 -0.000099 18.000397 -0.000598 1.440490 7.806698 0.103115 -11.405899 19.284892 -1.936598 0.000001 4.392204 0.000000 -0.000001 17.999992 -0.000004 0.000005 2.832715 -0.000002 0.000001 17.998995 -0.000097 -2.786319 2.079000 0.094615 59.081293 -12.433401 28.170796 0.000001 3.961902 0.000004 -0.354599 6.351297 -6.389998 0.000003 3.007104 0.000015 -0.354999 6.350899 -6.390098 0.000000 18.209290 0.000001 0.000000 0.000000 -0.000000 0.000000 11.033468 0.000000 10.835599 -16.036700 -4.591699 -7.040099 10.435074 1.914699 0.000000 89.999989 89.999886 -0.000001 13.459904 0.000024 -27.913052 82.911605 -48.623847 0.000004 26.100101 0.000000 -0.000093 -0.000094 -89.557099 -0.000094 28.900085 -0.000096 -0.000001 -0.000000 0.000002 2.561099 8.074017 0.103007 -4.455798 17.500697 -8.688098 -0.000003 4.580522 -0.000100 0.000001 17.999989 -0.000102 0.000003 2.817992 -0.000001 -0.000004 17.999393 0.000196 0.545010 8.136604 0.103000 -0.000099 17.999895 -5.399898 0.000021 4.702432 -0.000087 -0.000001 17.999990 -0.000000 0.000010 3.101633 0.000012 -0.000002 17.999990 0.000000 -3.136805 7.018103 0.103000 22.769301 18.002594 13.293901 0.000003 3.554106 -0.000096 -0.000000 17.998896 0.000102 0.000002 2.234011 0.000007 -0.000101 17.999191 0.000199 -1.440504 7.806789 0.103002 11.405700 19.284901 1.936700 0.000003 4.392313 -0.000095 0.000002 17.999992 -0.000001 0.000013 2.832738 -0.000009 0.000002 17.999196 -0.000001 2.786298 2.079082 0.094490 -59.081300 -12.433297 -28.170400 -0.000003 3.962020 -0.000104 0.354797 6.350602 6.389695 0.000000 3.007199 -0.000105 0.354899 6.350797 6.390198 8.099999 -0.000021 0.000000 -0.835500 -5.932588 -179.470501 0.000001 43.200012 0.000007 -0.008297 -27.496895 0.102100 -0.000002 43.300003 0.000014 0.038398 69.603603 0.064698 0.000001 14.572691 0.000000 -0.000001 37.697392 0.181399 -8.099999 -0.000009 0.000001 -19.622604 0.067109 172.304281 -0.000000 43.199997 0.000005 0.000600 -16.384594 -0.084799 -0.000001 43.300007 0.000018 -0.808399 68.529098 -0.946299 0.000001 14.572695 0.000003 -0.000001 33.778393 0.011300 
4.942500 94.652496 1.180011 17.732148 -5.836105 -1.455217 -0.000000 12.994698 0.000001 -0.000001 -0.000000 -0.000000 0.000000 12.709923 0.000003 -0.000001 -0.000000 -0.000000 0.000001 12.782906 0.000003 -25.902398 -0.000000 -0.000003 7.040100 10.435120 1.914701 0.000000 89.999989 -90.000003 -0.000001 13.459908 0.000022 -47.730298 54.156795 -28.608702 -0.000105 26.099998 0.000004 -0.000008 0.000007 100.753794 -0.000010 28.900085 -0.000004 -0.000001 -0.000002 0.000002 -2.561196 8.073895 0.102995 4.455599 17.500792 8.688305 -0.000007 4.580529 -0.000003 0.000005 17.999995 -0.000001 0.000005 2.818016 -0.000008 -0.000000 17.998693 -0.000801 -0.545001 8.136528 0.103001 0.000002 17.999591 5.400105 -0.000008 4.702398 0.000004 0.000001 18.000098 0.000002 0.000002 3.101612 -0.000011 0.000098 17.999994 0.000104 3.136804 7.018122 0.103099 -22.769091 18.002389 -13.293795 0.000005 3.553988 0.000000 -0.000302 17.999391 0.000300 0.000001 2.233902 -0.000004 -0.000100 18.000393 -0.000600 1.440504 7.806714 0.103084 -11.405899 19.284896 -1.936594 -0.000004 4.392220 -0.000007 0.000002 17.999992 0.000001 -0.000007 2.832730 -0.000016 0.000001 17.998995 -0.000100 -2.786300 2.079016 0.094586 59.081191 -12.433408 28.170799 0.000011 3.961902 0.000000 -0.354596 6.351293 -6.390002 -0.000002 3.007074 0.000011 -0.354999 6.350896 -6.390098 -0.000000 18.209320 0.000004 0.000001 -0.000001 0.000000 0.000001 11.033499 0.000000 10.945000 -16.256002 -4.627498 -7.040099 10.435119 1.914702 0.000000 89.999989 89.999893 0.000001 13.459906 0.000014 -27.182177 82.924801 -47.932574 0.000003 26.100109 0.000001 -0.000093 -0.000092 -87.735098 -0.000094 28.900101 -0.000097 0.000000 0.000000 0.000004 2.561098 8.074017 0.103007 -4.455799 17.500698 -8.688098 0.000010 4.580499 -0.000095 -0.000001 17.999994 0.000001 0.000005 2.817977 -0.000008 0.000002 17.999394 0.000201 0.545014 8.136604 0.102997 -0.000001 17.999896 -5.399895 0.000001 4.702432 -0.000087 -0.000000 17.999994 -0.000001 -0.000003 3.101648 0.000013 0.000002 17.999989 -0.000000 -3.136794 7.018118 0.103000 22.769298 18.002598 13.293901 0.000008 3.554121 -0.000096 -0.000000 17.998904 0.000098 -0.000012 2.234007 -0.000001 -0.000101 17.999292 0.000200 -1.440485 7.806803 0.103002 11.405699 19.284901 1.936705 0.000015 4.392327 -0.000095 -0.000001 17.999994 0.000002 0.000018 2.832723 -0.000001 -0.000001 17.999193 0.000002 2.786314 2.079098 0.094486 -59.081293 -12.433302 -28.170400 0.000002 3.962019 -0.000106 0.354796 6.350597 6.389700 -0.000001 3.007199 -0.000114 0.354901 6.350796 6.390198 8.100000 0.000012 0.000000 -0.475599 -5.835687 -179.485200 -0.000001 43.200008 0.000006 -0.008400 -27.486396 0.102300 -0.000001 43.300003 0.000011 0.287000 69.658497 0.356499 0.000001 14.572696 -0.000000 0.000001 37.804090 0.212299 -8.100000 0.000007 -0.000001 -19.193204 0.140009 172.287984 0.000001 43.199986 0.000008 0.000900 -16.452095 -0.086100 0.000001 43.299992 0.000013 -1.052900 68.667498 -1.226501 -0.000001 14.572695 -0.000000 -0.000000 33.854598 0.011699 
4.973400 94.636597 1.450411 17.592899 -5.738023 -1.380000 0.000000 12.994705 0.000003 0.000000 -0.000000 -0.000000 0.000000 12.709915 0.000001 0.000000 -0.000000 -0.000000 0.000000 12.782921 0.000004 -25.843503 -0.000001 -0.000003 7.040101 10.435120 1.914701 0.000000 89.999989 -89.999996 -0.000004 13.459901 0.000009 -47.743111 53.719994 -28.408712 -0.000116 26.100012 0.000016 -0.000004 0.000006 98.285295 -0.000004 28.900085 0.000003 -0.000000 0.000001 0.000002 -2.561204 8.073895 0.103003 4.455602 17.500797 8.688307 0.000001 4.580495 0.000011 -0.000001 18.000091 -0.000001 -0.000005 2.818016 -0.000008 0.000004 17.998691 -0.000799 -0.545005 8.136512 0.103017 0.000003 17.999592 5.400102 0.000001 4.702398 0.000003 -0.000002 18.000093 0.000003 0.000001 3.101612 0.000012 0.000101 17.999997 0.000102 3.136810 7.018121 0.103115 -22.769088 18.002393 -13.293796 -0.000001 3.553990 0.000005 -0.000300 17.999389 0.000401 0.000002 2.233902 -0.000004 -0.000099 18.000393 -0.000596 1.440501 7.806667 0.103100 -11.405894 19.284894 -1.936598 0.000002 4.392204 0.000001 0.000002 17.999990 -0.000002 -0.000008 2.832715 -0.000008 0.000001 17.998995 -0.000099 -2.786319 2.079001 0.094595 59.081293 -12.433405 28.170798 0.000005 3.961886 0.000006 -0.354599 6.351298 -6.389999 0.000006 3.007089 0.000017 -0.355000 6.350899 -6.390100 0.000000 18.209305 0.000001 -0.000000 0.000001 -0.000000 0.000001 11.033468 0.000000 11.061299 -16.483603 -4.663399 -7.040099 10.435120 1.914701 0.000000 89.999989 89.999893 -0.000003 13.459913 0.000027 -25.951705 83.010602 -46.725690 0.000006 26.100096 0.000003 -0.000093 -0.000093 -85.835397 -0.000089 28.900085 -0.000094 0.000000 0.000001 0.000006 2.561099 8.074001 0.103007 -4.455798 17.500697 -8.688099 0.000006 4.580499 -0.000102 -0.000002 17.999994 -0.000002 -0.000010 2.817961 0.000007 0.000001 17.999387 0.000203 0.545010 8.136589 0.103012 0.000002 17.999895 -5.399895 0.000011 4.702417 -0.000095 -0.000001 17.999990 -0.000000 0.000005 3.101618 0.000005 -0.000002 17.999985 0.000000 -3.136800 7.018103 0.103000 22.769303 18.002594 13.293898 -0.000003 3.554121 -0.000089 -0.000001 17.998897 0.000100 0.000005 2.234007 0.000007 -0.000099 17.999292 0.000200 -1.440493 7.806788 0.103002 11.405701 19.284901 1.936701 -0.000008 4.392312 -0.000110 0.000002 17.999995 0.000002 0.000007 2.832726 -0.000001 -0.000003 17.999097 0.000000 2.786295 2.079076 0.094488 -59.081293 -12.433305 -28.170302 -0.000005 3.962020 -0.000102 0.354798 6.350599 6.389696 0.000006 3.007199 -0.000118 0.354898 6.350796 6.390196 8.100000 0.000006 0.000000 -0.084499 -5.732986 -179.498696 -0.000000 43.199997 0.000001 -0.008398 -27.446198 0.102400 0.000000 43.299999 0.000022 0.531003 69.711001 0.642599 0.000002 14.572692 0.000005 0.000001 37.894091 0.243298 -8.100000 0.000004 0.000002 -18.756702 0.208211 172.275184 -0.000001 43.200024 0.000002 0.001300 -16.504698 -0.087400 0.000001 43.300011 0.000015 -1.297100 68.797600 -1.505401 0.000001 14.572714 0.000005 0.000000 33.924293 0.012201 
4.997700 94.623497 1.695911 17.454289 -5.639691 -1.305340 -0.000001 12.994698 0.000003 -0.000001 0.000000 0.000000 -0.000000 12.709908 0.000002 -0.000001 0.000000 0.000000 -0.000000 12.782906 0.000003 -25.784000 -0.000001 -0.000003 7.040101 10.435104 1.914701 0.000000 89.999989 -89.999996 -0.000002 13.459906 0.000048 -47.709804 53.302390 -28.172802 -0.000111 26.100012 0.000006 -0.000006 0.000008 95.732095 0.000008 28.900085 0.000007 -0.000003 -0.000003 0.000001 -2.561199 8.073878 0.103003 4.455597 17.500797 8.688303 -0.000001 4.580498 0.000004 -0.000000 17.999994 -0.000002 -0.000016 2.818001 -0.000016 0.000003 17.998693 -0.000799 -0.545000 8.136513 0.103001 -0.000002 17.999591 5.400103 0.000018 4.702412 0.000008 -0.000003 17.999997 0.000102 -0.000008 3.101612 -0.000010 0.000100 17.999994 0.000101 3.136803 7.018106 0.103114 -22.769095 18.002389 -13.293794 0.000015 3.554005 0.000003 -0.000198 17.999396 0.000402 0.000009 2.233917 -0.000019 -0.000100 18.000395 -0.000598 1.440497 7.806698 0.103099 -11.405901 19.284894 -1.936596 -0.000006 4.392204 0.000000 0.000003 17.999992 -0.000001 -0.000008 2.832715 -0.000024 -0.000001 17.998995 -0.000100 -2.786307 2.079000 0.094590 59.081198 -12.433406 28.170799 0.000009 3.961932 0.000000 -0.354598 6.351291 -6.389998 0.000000 3.007089 -0.000000 -0.354999 6.350897 -6.390100 0.000000 18.209305 0.000003 -0.000001 -0.000000 0.000000 -0.000000 11.033499 0.000000 11.176901 -16.710901 -4.699600 -7.040098 10.435103 1.914700 0.000000 89.999989 89.999893 -0.000000 13.459902 -0.000003 -24.705462 83.091997 -45.503560 -0.000007 26.100101 0.000003 -0.000093 -0.000094 -83.939699 -0.000118 28.900070 -0.000095 -0.000001 0.000000 0.000002 2.561086 8.074017 0.103007 -4.455797 17.500697 -8.688099 -0.000010 4.580484 -0.000103 0.000001 17.999994 0.000001 0.000006 2.817992 -0.000009 -0.000004 17.999391 0.000199 0.545000 8.136604 0.103004 0.000001 17.999893 -5.399898 0.000005 4.702417 -0.000079 -0.000001 17.999989 -0.000002 -0.000003 3.101617 0.000020 -0.000001 17.999994 -0.000001 -3.136812 7.018118 0.103000 22.769300 18.002596 13.293902 0.000003 3.554106 -0.000096 -0.000000 17.998901 0.000100 0.000000 2.234007 0.000002 -0.000000 17.999297 0.000200 -1.440503 7.806819 0.103002 11.405699 19.284901 1.936702 -0.000000 4.392313 -0.000102 0.000000 17.999992 0.000001 -0.000002 2.832727 -0.000000 0.000000 17.999092 -0.000002 2.786283 2.079098 0.094490 -59.081300 -12.433299 -28.170400 -0.000001 3.962020 -0.000114 0.354799 6.350594 6.389697 -0.000001 3.007215 -0.000103 0.354901 6.350791 6.390196 8.099999 0.000004 0.000000 0.307599 -5.646386 -179.512002 -0.000001 43.200012 0.000000 -0.008400 -27.402999 0.102500 -0.000000 43.299992 0.000024 0.777104 69.744598 0.930800 -0.000001 14.572716 -0.000003 0.000001 37.983894 0.274900 -8.100001 0.000002 0.000001 -18.324303 0.255408 172.267480 -0.000001 43.200012 0.000006 0.001600 -16.565799 -0.088700 0.000000 43.299992 -0.000002 -1.555699 68.913399 -1.800199 -0.000001 14.572699 0.000002 -0.000000 33.994996 0.012600 
